<?xml version="1.0" encoding="iso-8859-1"?>
<!-- Uploaded to: SVG Repo, www.svgrepo.com, Generator: SVG Repo Mixer Tools -->
<svg version="1.1" id="Layer_1" xmlns="http://www.w3.org/2000/svg" xmlns:xlink="http://www.w3.org/1999/xlink" 
	 viewBox="0 0 512 512" xml:space="preserve">
<path style="fill:#ECEDEF;" d="M307.307,265.086H119.182c-23.281,0-42.221,18.941-42.221,42.221v196.676
	c0,4.427,3.589,8.017,8.017,8.017h256.534c4.427,0,8.017-3.589,8.017-8.017V307.307
	C349.528,284.026,330.587,265.086,307.307,265.086z"/>
<path style="fill:#D9DCDF;" d="M102.079,503.983V307.307c0-23.28,18.941-42.221,42.221-42.221h-25.119
	c-23.281,0-42.221,18.941-42.221,42.221v196.676c0,4.427,3.589,8.017,8.017,8.017h25.119
	C105.669,512,102.079,508.411,102.079,503.983z"/>
<g>
	<path style="fill:#FFEBC8;" d="M324.409,145.37c-18.566,0-33.67,15.105-33.67,33.67s15.105,33.67,33.67,33.67
		c18.566,0,33.67-15.105,33.67-33.67S342.975,145.37,324.409,145.37z"/>
	<path style="fill:#FFEBC8;" d="M102.079,145.37c-18.566,0-33.67,15.105-33.67,33.67s15.105,33.67,33.67,33.67
		s33.67-15.105,33.67-33.67S120.645,145.37,102.079,145.37z"/>
	<path style="fill:#FFEBC8;" d="M213.244,42.756c-61.002,0-110.63,49.629-110.63,110.63s49.629,110.63,110.63,110.63
		s110.63-49.629,110.63-110.63S274.246,42.756,213.244,42.756z"/>
</g>
<path style="fill:#FFD791;" d="M229.812,256c-61.002,0-110.63-49.629-110.63-110.63c0-40.522,21.903-76.018,54.488-95.29
	c-41.513,15.956-71.056,56.243-71.056,103.306c0,61.002,49.629,110.63,110.63,110.63c20.48,0,39.674-5.601,56.143-15.341
	C257.092,253.402,243.75,256,229.812,256z"/>
<g>
	<path style="fill:#68727E;" d="M170.489,178.505h-8.551c-4.427,0-8.017-3.589-8.017-8.017s3.589-8.017,8.017-8.017h8.551
		c4.427,0,8.017,3.589,8.017,8.017S174.916,178.505,170.489,178.505z"/>
	<path style="fill:#68727E;" d="M264.551,178.505H256c-4.427,0-8.017-3.589-8.017-8.017s3.589-8.017,8.017-8.017h8.551
		c4.427,0,8.017,3.589,8.017,8.017S268.979,178.505,264.551,178.505z"/>
	<path style="fill:#68727E;" d="M213.244,34.205H93.756c-5.215,0-9.297,4.798-8.005,9.961l6.061,24.244h-23.72
		c-5.674,0-9.834,5.697-7.634,11.061c0.513,1.252,51.562,125.59,68.533,162.758c3.583,7.848,15.309,4.842,15.309-3.553v-94.909
		c0-4.427,3.589-8.017,8.017-8.017H274.17c4.427,0,8.017,3.589,8.017,8.017v94.906c0,2.593,1.131,5.117,3.219,6.654
		c3.243,2.387,7.581,2.011,10.348-0.646c22.278-21.378,36.672-57.214,36.672-91.294C332.426,87.67,278.961,34.205,213.244,34.205z"
		/>
</g>
<path style="fill:#55606E;" d="M213.244,34.205H93.528c-5.129,0-9.025,4.977-7.777,9.961l6.061,24.244H67.875
	c-5.599,0-9.545,5.871-7.416,11.061c0.513,1.252,51.562,125.59,68.533,162.758c3.482,7.629,15.309,5.03,15.309-3.33v-23.415
	c-15.688-19.099-25.119-43.525-25.119-70.113c0-59.558,47.307-108.264,106.317-110.539
	C221.469,34.417,217.381,34.205,213.244,34.205z"/>
<path style="fill:#68727E;" d="M213.244,221.261c-13.994,0-22.046-9.796-23.517-11.76c-2.655-3.542-1.936-8.567,1.607-11.223
	c3.543-2.655,8.567-1.936,11.223,1.607c0.164,0.218,4.08,5.342,10.688,5.342c0.273,0,6.727-0.061,10.689-5.344
	c2.656-3.541,7.681-4.26,11.223-1.603c3.541,2.656,4.26,7.681,1.603,11.223C228.367,220.694,215.698,221.261,213.244,221.261z"/>
<path style="fill:#509FE8;" d="M255.411,460.291l-17.102-145.37c-0.475-4.037-3.897-7.08-7.962-7.08h-34.205
	c-4.065,0-7.487,3.043-7.962,7.08l-17.102,145.37c-0.394,3.355,1.355,6.596,4.377,8.107l34.205,17.102
	c2.237,1.118,4.933,1.118,7.17,0l34.205-17.102C254.056,466.887,255.805,463.645,255.411,460.291z"/>
<path style="fill:#4D8CCF;" d="M238.309,314.922c-0.475-4.037-3.897-7.08-7.962-7.08h-34.205c-4.065,0-7.487,3.043-7.962,7.08
	l-1.556,13.229h53.242L238.309,314.922z"/>
<path style="fill:#509FE8;" d="M247.449,265.086H179.04c-2.66,0-5.147,1.319-6.638,3.522c-1.492,2.203-1.793,5.001-0.805,7.472
	l17.102,42.756h49.091l17.102-42.756c0.988-2.47,0.687-5.27-0.805-7.472C252.596,266.405,250.109,265.086,247.449,265.086z"/>
<path style="fill:#FF8C78;" d="M418.472,0c-46.856,0-84.977,38.121-84.977,84.977s38.121,84.977,84.977,84.977
	s84.977-38.121,84.977-84.977S465.328,0,418.472,0z"/>
<path style="fill:#B3B9BF;" d="M418.472,25.653c-32.711,0-59.324,26.612-59.324,59.324s26.612,59.324,59.324,59.324
	s59.324-26.612,59.324-59.324S451.183,25.653,418.472,25.653z"/>
<path style="fill:#F6F6F7;" d="M418.472,33.67c-28.29,0-51.307,23.016-51.307,51.307s23.016,51.307,51.307,51.307
	c28.29,0,51.307-23.016,51.307-51.307S446.762,33.67,418.472,33.67z"/>
<path style="fill:#8E959F;" d="M444.118,110.097c-1.529,0-3.073-0.436-4.439-1.348l-25.653-17.102c-2.23-1.487-3.57-3.989-3.57-6.67
	V59.324c0-4.427,3.589-8.017,8.017-8.017c4.427,0,8.017,3.589,8.017,8.017v21.363l22.083,14.722
	c3.684,2.455,4.68,7.433,2.223,11.116C449.251,108.843,446.709,110.097,444.118,110.097z"/>
<path style="fill:#F7B14D;" d="M84.977,342.046C38.121,342.046,0,380.167,0,427.023S38.121,512,84.977,512
	s84.977-38.121,84.977-84.977S131.833,342.046,84.977,342.046z"/>
<path style="fill:#FFC44F;" d="M84.977,358.614c-37.721,0-68.409,30.688-68.409,68.409s30.688,68.409,68.409,68.409
	s68.409-30.688,68.409-68.409S122.698,358.614,84.977,358.614z"/>
<path style="fill:#C6803F;" d="M84.977,419.006c-5.01,0-9.086-4.076-9.086-9.086s4.076-9.086,9.086-9.086h17.102
	c4.427,0,8.017-3.589,8.017-8.017c0-4.427-3.589-8.017-8.017-8.017h-9.086v-9.086c0-4.427-3.589-8.017-8.017-8.017
	c-4.427,0-8.017,3.589-8.017,8.017v10.405c-9.93,3.354-17.102,12.752-17.102,23.8c0,13.851,11.268,25.119,25.119,25.119
	c5.01,0,9.086,4.076,9.086,9.086s-4.076,9.086-9.086,9.086H67.875c-4.427,0-8.017,3.589-8.017,8.017s3.589,8.017,8.017,8.017h9.086
	v9.086c0,4.427,3.589,8.017,8.017,8.017c4.427,0,8.017-3.589,8.017-8.017v-10.405c9.93-3.354,17.102-12.752,17.102-23.8
	C110.096,430.275,98.828,419.006,84.977,419.006z"/>
<path style="fill:#8E959F;" d="M282.188,375.003v128.98c0,4.427,3.589,8.017,8.017,8.017h213.779c4.427,0,8.017-3.589,8.017-8.017
	v-128.98H282.188z"/>
<path style="fill:#F7B14D;" d="M439.315,332.96c0-13.851-11.268-25.119-25.119-25.119h-34.205
	c-13.851,0-25.119,11.268-25.119,25.119v13.54h16.033v-13.54c0-5.01,4.076-9.086,9.086-9.086h34.205c5.01,0,9.086,4.076,9.086,9.086
	v13.54h16.033V332.96z"/>
<g>
	<rect x="354.873" y="336.167" style="fill:#BF722A;" width="16.033" height="10.333"/>
	<rect x="423.282" y="336.167" style="fill:#BF722A;" width="16.033" height="10.333"/>
</g>
<path style="fill:#68727E;" d="M282.188,375.003v20.315c0,3.151,1.846,6.009,4.717,7.306l106.889,48.272
	c2.052,0.927,4.454,0.94,6.517,0.036l106.889-46.836c2.916-1.277,4.799-4.16,4.799-7.343v-21.751H282.188z"/>
<path style="fill:#8E959F;" d="M503.983,342.046H290.205c-4.427,0-8.017,3.589-8.017,8.017v28.688c0,3.151,1.846,6.009,4.717,7.306
	l106.889,48.272c2.052,0.927,4.454,0.94,6.517,0.036l106.889-46.836c2.916-1.277,4.799-4.16,4.799-7.343v-30.124
	C512,345.635,508.411,342.046,503.983,342.046z"/>
<path style="fill:#FFC44F;" d="M418.472,401.904h-42.756c-4.427,0-8.017,3.589-8.017,8.017v34.205c0,4.427,3.589,8.017,8.017,8.017
	h42.756c4.427,0,8.017-3.589,8.017-8.017v-34.205C426.489,405.493,422.899,401.904,418.472,401.904z"/>
<path style="fill:#F7B14D;" d="M418.472,444.125h-42.756c-4.427,0-8.017-3.589-8.017-8.017v8.017c0,4.427,3.589,8.017,8.017,8.017
	h42.756c4.427,0,8.017-3.589,8.017-8.017v-8.017C426.489,440.536,422.899,444.125,418.472,444.125z"/>
</svg>